<?xml version="1.0" encoding="UTF-8" standalone="no"?>
<!DOCTYPE svg PUBLIC "-//W3C//DTD SVG 1.1//EN"
 "http://www.w3.org/Graphics/SVG/1.1/DTD/svg11.dtd">
<!-- Generated by graphviz version 2.43.0 (0)
 -->
<!-- Title: %3 Pages: 1 -->
<svg width="1185pt" height="404pt"
 viewBox="0.00 0.00 1185.21 404.00" xmlns="http://www.w3.org/2000/svg" xmlns:xlink="http://www.w3.org/1999/xlink">
<g id="graph0" class="graph" transform="scale(1 1) rotate(0) translate(4 400)">
<title>%3</title>
<polygon fill="white" stroke="transparent" points="-4,4 -4,-400 1181.21,-400 1181.21,4 -4,4"/>
<!-- [root] aws_internet_gateway.primary (expand) -->
<g id="node1" class="node">
<title>[root] aws_internet_gateway.primary (expand)</title>
<polygon fill="none" stroke="black" points="409.32,-252 174.32,-252 174.32,-216 409.32,-216 409.32,-252"/>
<text text-anchor="middle" x="291.82" y="-230.3" font-family="Times,serif" font-size="14.00">aws_internet_gateway.primary</text>
</g>
<!-- [root] aws_vpc.primary (expand) -->
<g id="node6" class="node">
<title>[root] aws_vpc.primary (expand)</title>
<polygon fill="none" stroke="black" points="535.32,-180 398.32,-180 398.32,-144 535.32,-144 535.32,-180"/>
<text text-anchor="middle" x="466.82" y="-158.3" font-family="Times,serif" font-size="14.00">aws_vpc.primary</text>
</g>
<!-- [root] aws_internet_gateway.primary (expand)&#45;&gt;[root] aws_vpc.primary (expand) -->
<g id="edge1" class="edge">
<title>[root] aws_internet_gateway.primary (expand)&#45;&gt;[root] aws_vpc.primary (expand)</title>
<path fill="none" stroke="black" d="M334.63,-215.88C358.77,-206.22 389.11,-194.09 414.63,-183.88"/>
<polygon fill="black" stroke="black" points="416.17,-187.03 424.15,-180.07 413.57,-180.53 416.17,-187.03"/>
</g>
<!-- [root] aws_subnet.app (expand) -->
<g id="node2" class="node">
<title>[root] aws_subnet.app (expand)</title>
<polygon fill="none" stroke="black" points="558.32,-252 427.32,-252 427.32,-216 558.32,-216 558.32,-252"/>
<text text-anchor="middle" x="492.82" y="-230.3" font-family="Times,serif" font-size="14.00">aws_subnet.app</text>
</g>
<!-- [root] aws_subnet.app (expand)&#45;&gt;[root] aws_vpc.primary (expand) -->
<g id="edge2" class="edge">
<title>[root] aws_subnet.app (expand)&#45;&gt;[root] aws_vpc.primary (expand)</title>
<path fill="none" stroke="black" d="M486.4,-215.7C483.47,-207.81 479.94,-198.3 476.68,-189.55"/>
<polygon fill="black" stroke="black" points="479.94,-188.26 473.18,-180.1 473.38,-190.7 479.94,-188.26"/>
</g>
<!-- [root] aws_subnet.bastion (expand) -->
<g id="node3" class="node">
<title>[root] aws_subnet.bastion (expand)</title>
<polygon fill="none" stroke="black" points="733.32,-252 576.32,-252 576.32,-216 733.32,-216 733.32,-252"/>
<text text-anchor="middle" x="654.82" y="-230.3" font-family="Times,serif" font-size="14.00">aws_subnet.bastion</text>
</g>
<!-- [root] aws_subnet.bastion (expand)&#45;&gt;[root] aws_vpc.primary (expand) -->
<g id="edge3" class="edge">
<title>[root] aws_subnet.bastion (expand)&#45;&gt;[root] aws_vpc.primary (expand)</title>
<path fill="none" stroke="black" d="M608.83,-215.88C582.68,-206.14 549.74,-193.87 522.17,-183.61"/>
<polygon fill="black" stroke="black" points="523.26,-180.28 512.66,-180.07 520.81,-186.84 523.26,-180.28"/>
</g>
<!-- [root] aws_subnet.public (expand) -->
<g id="node4" class="node">
<title>[root] aws_subnet.public (expand)</title>
<polygon fill="none" stroke="black" points="899.82,-252 751.82,-252 751.82,-216 899.82,-216 899.82,-252"/>
<text text-anchor="middle" x="825.82" y="-230.3" font-family="Times,serif" font-size="14.00">aws_subnet.public</text>
</g>
<!-- [root] aws_subnet.public (expand)&#45;&gt;[root] aws_vpc.primary (expand) -->
<g id="edge4" class="edge">
<title>[root] aws_subnet.public (expand)&#45;&gt;[root] aws_vpc.primary (expand)</title>
<path fill="none" stroke="black" d="M751.63,-217.95C748.32,-217.29 745.04,-216.63 741.82,-216 675.7,-202.94 600.55,-188.48 545.55,-177.97"/>
<polygon fill="black" stroke="black" points="545.99,-174.49 535.51,-176.06 544.68,-181.37 545.99,-174.49"/>
</g>
<!-- [root] data.aws_availability_zones.available (expand) -->
<g id="node7" class="node">
<title>[root] data.aws_availability_zones.available (expand)</title>
<polygon fill="none" stroke="black" points="979.32,-180 698.32,-180 698.32,-144 979.32,-144 979.32,-180"/>
<text text-anchor="middle" x="838.82" y="-158.3" font-family="Times,serif" font-size="14.00">data.aws_availability_zones.available</text>
</g>
<!-- [root] aws_subnet.public (expand)&#45;&gt;[root] data.aws_availability_zones.available (expand) -->
<g id="edge5" class="edge">
<title>[root] aws_subnet.public (expand)&#45;&gt;[root] data.aws_availability_zones.available (expand)</title>
<path fill="none" stroke="black" d="M829.04,-215.7C830.47,-207.98 832.19,-198.71 833.79,-190.11"/>
<polygon fill="black" stroke="black" points="837.26,-190.58 835.65,-180.1 830.38,-189.3 837.26,-190.58"/>
</g>
<!-- [root] aws_subnet.web (expand) -->
<g id="node5" class="node">
<title>[root] aws_subnet.web (expand)</title>
<polygon fill="none" stroke="black" points="155.82,-252 21.82,-252 21.82,-216 155.82,-216 155.82,-252"/>
<text text-anchor="middle" x="88.82" y="-230.3" font-family="Times,serif" font-size="14.00">aws_subnet.web</text>
</g>
<!-- [root] aws_subnet.web (expand)&#45;&gt;[root] aws_vpc.primary (expand) -->
<g id="edge6" class="edge">
<title>[root] aws_subnet.web (expand)&#45;&gt;[root] aws_vpc.primary (expand)</title>
<path fill="none" stroke="black" d="M155.93,-217.81C158.93,-217.19 161.91,-216.58 164.82,-216 240.48,-200.91 327.27,-185.92 388.34,-175.75"/>
<polygon fill="black" stroke="black" points="389,-179.19 398.29,-174.1 387.85,-172.28 389,-179.19"/>
</g>
<!-- [root] provider[&quot;registry.terraform.io/hashicorp/aws&quot;] -->
<g id="node8" class="node">
<title>[root] provider[&quot;registry.terraform.io/hashicorp/aws&quot;]</title>
<polygon fill="none" stroke="black" points="851.82,-108 526.56,-90 851.82,-72 1177.09,-90 851.82,-108"/>
<text text-anchor="middle" x="851.82" y="-86.3" font-family="Times,serif" font-size="14.00">provider[&quot;registry.terraform.io/hashicorp/aws&quot;]</text>
</g>
<!-- [root] aws_vpc.primary (expand)&#45;&gt;[root] provider[&quot;registry.terraform.io/hashicorp/aws&quot;] -->
<g id="edge7" class="edge">
<title>[root] aws_vpc.primary (expand)&#45;&gt;[root] provider[&quot;registry.terraform.io/hashicorp/aws&quot;]</title>
<path fill="none" stroke="black" d="M535.65,-148.49C601.31,-136.55 700.26,-118.56 769.94,-105.89"/>
<polygon fill="black" stroke="black" points="770.79,-109.29 780,-104.06 769.53,-102.4 770.79,-109.29"/>
</g>
<!-- [root] var.env -->
<g id="node10" class="node">
<title>[root] var.env</title>
<polygon fill="none" stroke="black" points="294.82,-108 232.82,-108 232.82,-72 300.82,-72 300.82,-102 294.82,-108"/>
<polyline fill="none" stroke="black" points="294.82,-108 294.82,-102 "/>
<polyline fill="none" stroke="black" points="300.82,-102 294.82,-102 "/>
<text text-anchor="middle" x="266.82" y="-86.3" font-family="Times,serif" font-size="14.00">var.env</text>
</g>
<!-- [root] aws_vpc.primary (expand)&#45;&gt;[root] var.env -->
<g id="edge8" class="edge">
<title>[root] aws_vpc.primary (expand)&#45;&gt;[root] var.env</title>
<path fill="none" stroke="black" d="M414.26,-144C385.92,-134.66 350.18,-122.61 310.62,-108.21"/>
<polygon fill="black" stroke="black" points="311.63,-104.86 301.03,-104.71 309.22,-111.43 311.63,-104.86"/>
</g>
<!-- [root] var.owner -->
<g id="node11" class="node">
<title>[root] var.owner</title>
<polygon fill="none" stroke="black" points="400.32,-108 319.32,-108 319.32,-72 406.32,-72 406.32,-102 400.32,-108"/>
<polyline fill="none" stroke="black" points="400.32,-108 400.32,-102 "/>
<polyline fill="none" stroke="black" points="406.32,-102 400.32,-102 "/>
<text text-anchor="middle" x="362.82" y="-86.3" font-family="Times,serif" font-size="14.00">var.owner</text>
</g>
<!-- [root] aws_vpc.primary (expand)&#45;&gt;[root] var.owner -->
<g id="edge9" class="edge">
<title>[root] aws_vpc.primary (expand)&#45;&gt;[root] var.owner</title>
<path fill="none" stroke="black" d="M441.38,-143.88C428.04,-134.89 411.5,-123.76 397.05,-114.03"/>
<polygon fill="black" stroke="black" points="398.61,-110.87 388.36,-108.19 394.7,-116.68 398.61,-110.87"/>
</g>
<!-- [root] var.prefix -->
<g id="node12" class="node">
<title>[root] var.prefix</title>
<polygon fill="none" stroke="black" points="502.82,-108 424.82,-108 424.82,-72 508.82,-72 508.82,-102 502.82,-108"/>
<polyline fill="none" stroke="black" points="502.82,-108 502.82,-102 "/>
<polyline fill="none" stroke="black" points="508.82,-102 502.82,-102 "/>
<text text-anchor="middle" x="466.82" y="-86.3" font-family="Times,serif" font-size="14.00">var.prefix</text>
</g>
<!-- [root] aws_vpc.primary (expand)&#45;&gt;[root] var.prefix -->
<g id="edge10" class="edge">
<title>[root] aws_vpc.primary (expand)&#45;&gt;[root] var.prefix</title>
<path fill="none" stroke="black" d="M466.82,-143.7C466.82,-135.98 466.82,-126.71 466.82,-118.11"/>
<polygon fill="black" stroke="black" points="470.32,-118.1 466.82,-108.1 463.32,-118.1 470.32,-118.1"/>
</g>
<!-- [root] data.aws_availability_zones.available (expand)&#45;&gt;[root] provider[&quot;registry.terraform.io/hashicorp/aws&quot;] -->
<g id="edge11" class="edge">
<title>[root] data.aws_availability_zones.available (expand)&#45;&gt;[root] provider[&quot;registry.terraform.io/hashicorp/aws&quot;]</title>
<path fill="none" stroke="black" d="M842.04,-143.7C843.47,-135.98 845.19,-126.71 846.79,-118.11"/>
<polygon fill="black" stroke="black" points="850.26,-118.58 848.65,-108.1 843.38,-117.3 850.26,-118.58"/>
</g>
<!-- [root] var.region -->
<g id="node13" class="node">
<title>[root] var.region</title>
<polygon fill="none" stroke="black" points="890.32,-36 807.32,-36 807.32,0 896.32,0 896.32,-30 890.32,-36"/>
<polyline fill="none" stroke="black" points="890.32,-36 890.32,-30 "/>
<polyline fill="none" stroke="black" points="896.32,-30 890.32,-30 "/>
<text text-anchor="middle" x="851.82" y="-14.3" font-family="Times,serif" font-size="14.00">var.region</text>
</g>
<!-- [root] provider[&quot;registry.terraform.io/hashicorp/aws&quot;]&#45;&gt;[root] var.region -->
<g id="edge23" class="edge">
<title>[root] provider[&quot;registry.terraform.io/hashicorp/aws&quot;]&#45;&gt;[root] var.region</title>
<path fill="none" stroke="black" d="M851.82,-71.7C851.82,-63.98 851.82,-54.71 851.82,-46.11"/>
<polygon fill="black" stroke="black" points="855.32,-46.1 851.82,-36.1 848.32,-46.1 855.32,-46.1"/>
</g>
<!-- [root] var.VPC_CIDR -->
<g id="node9" class="node">
<title>[root] var.VPC_CIDR</title>
<polygon fill="none" stroke="black" points="1029.32,-252 918.32,-252 918.32,-216 1035.32,-216 1035.32,-246 1029.32,-252"/>
<polyline fill="none" stroke="black" points="1029.32,-252 1029.32,-246 "/>
<polyline fill="none" stroke="black" points="1035.32,-246 1029.32,-246 "/>
<text text-anchor="middle" x="976.82" y="-230.3" font-family="Times,serif" font-size="14.00">var.VPC_CIDR</text>
</g>
<!-- [root] meta.count&#45;boundary (EachMode fixup) -->
<g id="node14" class="node">
<title>[root] meta.count&#45;boundary (EachMode fixup)</title>
<ellipse fill="none" stroke="black" cx="824.82" cy="-306" rx="222.86" ry="18"/>
<text text-anchor="middle" x="824.82" y="-302.3" font-family="Times,serif" font-size="14.00">[root] meta.count&#45;boundary (EachMode fixup)</text>
</g>
<!-- [root] meta.count&#45;boundary (EachMode fixup)&#45;&gt;[root] aws_internet_gateway.primary (expand) -->
<g id="edge12" class="edge">
<title>[root] meta.count&#45;boundary (EachMode fixup)&#45;&gt;[root] aws_internet_gateway.primary (expand)</title>
<path fill="none" stroke="black" d="M712.08,-290.46C632.93,-280.22 524.29,-266.1 419.64,-252.24"/>
<polygon fill="black" stroke="black" points="419.9,-248.74 409.53,-250.9 418.98,-255.68 419.9,-248.74"/>
</g>
<!-- [root] meta.count&#45;boundary (EachMode fixup)&#45;&gt;[root] aws_subnet.app (expand) -->
<g id="edge13" class="edge">
<title>[root] meta.count&#45;boundary (EachMode fixup)&#45;&gt;[root] aws_subnet.app (expand)</title>
<path fill="none" stroke="black" d="M745.4,-289.18C696.82,-279.39 633.16,-266.35 568.53,-252.35"/>
<polygon fill="black" stroke="black" points="569.09,-248.89 558.57,-250.19 567.6,-255.73 569.09,-248.89"/>
</g>
<!-- [root] meta.count&#45;boundary (EachMode fixup)&#45;&gt;[root] aws_subnet.bastion (expand) -->
<g id="edge14" class="edge">
<title>[root] meta.count&#45;boundary (EachMode fixup)&#45;&gt;[root] aws_subnet.bastion (expand)</title>
<path fill="none" stroke="black" d="M784.1,-288.23C760.59,-278.55 730.8,-266.28 705.74,-255.97"/>
<polygon fill="black" stroke="black" points="706.97,-252.69 696.39,-252.12 704.31,-259.16 706.97,-252.69"/>
</g>
<!-- [root] meta.count&#45;boundary (EachMode fixup)&#45;&gt;[root] aws_subnet.public (expand) -->
<g id="edge15" class="edge">
<title>[root] meta.count&#45;boundary (EachMode fixup)&#45;&gt;[root] aws_subnet.public (expand)</title>
<path fill="none" stroke="black" d="M825.07,-287.7C825.18,-279.98 825.31,-270.71 825.44,-262.11"/>
<polygon fill="black" stroke="black" points="828.94,-262.15 825.58,-252.1 821.94,-262.05 828.94,-262.15"/>
</g>
<!-- [root] meta.count&#45;boundary (EachMode fixup)&#45;&gt;[root] aws_subnet.web (expand) -->
<g id="edge16" class="edge">
<title>[root] meta.count&#45;boundary (EachMode fixup)&#45;&gt;[root] aws_subnet.web (expand)</title>
<path fill="none" stroke="black" d="M665.39,-293.37C495.02,-280.77 240.4,-261.37 166.19,-251.95"/>
<polygon fill="black" stroke="black" points="166.25,-248.43 155.86,-250.53 165.29,-255.36 166.25,-248.43"/>
</g>
<!-- [root] meta.count&#45;boundary (EachMode fixup)&#45;&gt;[root] var.VPC_CIDR -->
<g id="edge17" class="edge">
<title>[root] meta.count&#45;boundary (EachMode fixup)&#45;&gt;[root] var.VPC_CIDR</title>
<path fill="none" stroke="black" d="M861.23,-288.23C881.98,-278.68 908.19,-266.61 930.41,-256.38"/>
<polygon fill="black" stroke="black" points="932.04,-259.48 939.66,-252.12 929.11,-253.12 932.04,-259.48"/>
</g>
<!-- [root] provider[&quot;registry.terraform.io/hashicorp/aws&quot;] (close) -->
<g id="node15" class="node">
<title>[root] provider[&quot;registry.terraform.io/hashicorp/aws&quot;] (close)</title>
<ellipse fill="none" stroke="black" cx="291.82" cy="-306" rx="291.65" ry="18"/>
<text text-anchor="middle" x="291.82" y="-302.3" font-family="Times,serif" font-size="14.00">[root] provider[&quot;registry.terraform.io/hashicorp/aws&quot;] (close)</text>
</g>
<!-- [root] provider[&quot;registry.terraform.io/hashicorp/aws&quot;] (close)&#45;&gt;[root] aws_internet_gateway.primary (expand) -->
<g id="edge18" class="edge">
<title>[root] provider[&quot;registry.terraform.io/hashicorp/aws&quot;] (close)&#45;&gt;[root] aws_internet_gateway.primary (expand)</title>
<path fill="none" stroke="black" d="M291.82,-287.7C291.82,-279.98 291.82,-270.71 291.82,-262.11"/>
<polygon fill="black" stroke="black" points="295.32,-262.1 291.82,-252.1 288.32,-262.1 295.32,-262.1"/>
</g>
<!-- [root] provider[&quot;registry.terraform.io/hashicorp/aws&quot;] (close)&#45;&gt;[root] aws_subnet.app (expand) -->
<g id="edge19" class="edge">
<title>[root] provider[&quot;registry.terraform.io/hashicorp/aws&quot;] (close)&#45;&gt;[root] aws_subnet.app (expand)</title>
<path fill="none" stroke="black" d="M339.97,-288.23C368.26,-278.38 404.24,-265.85 434.18,-255.42"/>
<polygon fill="black" stroke="black" points="435.38,-258.71 443.68,-252.12 433.08,-252.1 435.38,-258.71"/>
</g>
<!-- [root] provider[&quot;registry.terraform.io/hashicorp/aws&quot;] (close)&#45;&gt;[root] aws_subnet.bastion (expand) -->
<g id="edge20" class="edge">
<title>[root] provider[&quot;registry.terraform.io/hashicorp/aws&quot;] (close)&#45;&gt;[root] aws_subnet.bastion (expand)</title>
<path fill="none" stroke="black" d="M376.38,-288.71C428.33,-278.71 496.52,-265.56 566.29,-252.1"/>
<polygon fill="black" stroke="black" points="566.99,-255.53 576.14,-250.2 565.66,-248.66 566.99,-255.53"/>
</g>
<!-- [root] provider[&quot;registry.terraform.io/hashicorp/aws&quot;] (close)&#45;&gt;[root] aws_subnet.public (expand) -->
<g id="edge21" class="edge">
<title>[root] provider[&quot;registry.terraform.io/hashicorp/aws&quot;] (close)&#45;&gt;[root] aws_subnet.public (expand)</title>
<path fill="none" stroke="black" d="M441.23,-290.53C526.36,-281.52 635.19,-268.75 741.71,-251.94"/>
<polygon fill="black" stroke="black" points="742.36,-255.38 751.68,-250.35 741.25,-248.47 742.36,-255.38"/>
</g>
<!-- [root] provider[&quot;registry.terraform.io/hashicorp/aws&quot;] (close)&#45;&gt;[root] aws_subnet.web (expand) -->
<g id="edge22" class="edge">
<title>[root] provider[&quot;registry.terraform.io/hashicorp/aws&quot;] (close)&#45;&gt;[root] aws_subnet.web (expand)</title>
<path fill="none" stroke="black" d="M243.2,-288.23C214.62,-278.38 178.29,-265.85 148.05,-255.42"/>
<polygon fill="black" stroke="black" points="149.06,-252.07 138.46,-252.12 146.77,-258.69 149.06,-252.07"/>
</g>
<!-- [root] root -->
<g id="node16" class="node">
<title>[root] root</title>
<ellipse fill="none" stroke="black" cx="557.82" cy="-378" rx="58.49" ry="18"/>
<text text-anchor="middle" x="557.82" y="-374.3" font-family="Times,serif" font-size="14.00">[root] root</text>
</g>
<!-- [root] root&#45;&gt;[root] meta.count&#45;boundary (EachMode fixup) -->
<g id="edge24" class="edge">
<title>[root] root&#45;&gt;[root] meta.count&#45;boundary (EachMode fixup)</title>
<path fill="none" stroke="black" d="M600.72,-365.75C641.68,-355.01 704.19,-338.63 752.79,-325.89"/>
<polygon fill="black" stroke="black" points="753.84,-329.23 762.62,-323.31 752.06,-322.46 753.84,-329.23"/>
</g>
<!-- [root] root&#45;&gt;[root] provider[&quot;registry.terraform.io/hashicorp/aws&quot;] (close) -->
<g id="edge25" class="edge">
<title>[root] root&#45;&gt;[root] provider[&quot;registry.terraform.io/hashicorp/aws&quot;] (close)</title>
<path fill="none" stroke="black" d="M514.79,-365.68C474.28,-355.01 412.8,-338.84 364.65,-326.17"/>
<polygon fill="black" stroke="black" points="365.47,-322.76 354.9,-323.6 363.68,-329.53 365.47,-322.76"/>
</g>
</g>
</svg>
